<svg xmlns="http://www.w3.org/2000/svg" viewBox="0 0 13020 13020">
  <g transform="translate(500, 967)">
    <path d="M7772.5 5913.05C7811.17 5902.87 7843.73 5898.8 7874.26 5888.63C8590.66 5664.76 9307.05 5449.03 10019.4 5214.98C10660.5 5005.36 11295.5 4777.42 11932.5 4557.62C11961 4547.44 11991.5 4543.37 12020 4537.27L12018 4535.23C11987.4 4551.51 11956.9 4571.87 11924.3 4584.08C10595.3 5109.15 9254.14 5605.74 7896.65 6051.44C7870.19 6059.58 7845.77 6071.79 7811.17 6084L8724.98 10693.7C8775.86 10921.6 8598.8 11098.7 8370.85 11049.8C8254.85 11025.4 8165.3 10954.2 8069.64 10891.1C7886.47 10771 7703.3 10646.9 7520.13 10526.8C7353.24 10416.9 7186.36 10305 7017.43 10197.1C6813.91 10064.8 6610.39 9934.56 6404.83 9804.31C6182.99 9663.88 5961.15 9525.49 5739.32 9387.1C5491.02 9234.46 5240.69 9079.79 4990.36 8931.22C4603.66 8703.28 4214.94 8479.41 3824.18 8257.58C3390.67 8013.35 2953.1 7773.2 2515.53 7533.05C2452.44 7498.45 2409.7 7453.68 2393.42 7384.48C2371.03 7276.62 2428.02 7189.11 2535.88 7166.72C2841.16 7105.66 3146.45 7044.61 3451.73 6981.52C4379.79 6788.18 5301.74 6574.48 6219.63 6340.44C6524.91 6263.1 6828.16 6179.66 7133.44 6098.25C7159.9 6092.15 7186.36 6081.97 7220.95 6069.76C6893.28 4274.73 6565.61 2483.77 6239.98 692.812C6201.31 694.848 6195.21 725.375 6180.96 745.727C5896.03 1179.22 5617.2 1614.75 5330.24 2046.21C4259.71 3658.07 3109.81 5208.88 1886.65 6706.77C1296.43 7429.26 691.974 8143.61 93.6202 8862.02C65.1271 8894.59 30.5283 8923.08 0 8951.57L2.03534 8953.61C18.3171 8925.12 34.5987 8896.62 54.9508 8870.17C830.369 7901.42 1589.51 6918.43 2330.33 5923.22C3345.9 4557.62 4296.35 3147.24 5189.81 1698.19C5513.41 1173.12 5824.79 641.933 6142.29 114.822C6195.2 27.3088 6262.37 -11.3596 6345.81 2.88666C6433.33 17.1329 6510.66 88.3642 6531.02 175.877L7772.5 5913.05ZM3052.83 7396.69C3060.97 7408.91 3060.97 7417.05 3065.04 7419.08C4742.06 8269.79 6384.48 9181.55 7980.09 10176.8C7990.27 10182.9 8000.44 10186.9 8010.62 10189C8014.69 10191 8020.8 10189 8030.97 10186.9C7892.58 9535.67 7748.08 8884.41 7619.86 8231.12C7491.64 7575.79 7377.67 6918.43 7255.55 6252.92C5867.53 6684.38 4467.3 7058.85 3052.83 7396.69Z" fill="url(#paint0_linear_2505_41869)"/>
<defs>
<linearGradient id="paint0_linear_2505_41869" x1="918.569" y1="7570.79" x2="10243.2" y2="4627.07" gradientUnits="userSpaceOnUse">
<stop stop-color="#009EDC"/>
<stop offset="1" stop-color="#3C2F88"/>
</linearGradient>
</defs>
  </g>
</svg>