<svg width="23471" height="3962" viewBox="0 0 23471 3962" fill="none" xmlns="http://www.w3.org/2000/svg">
<path d="M1932.56 79.8386L2498.48 3881.57H1486.41L1437.09 3198.24H1082.52L1023.81 3881.57H-0.00258827L502.512 79.8386H1932.56ZM1408.92 2524.31C1358.82 2093.81 1308.73 1562.33 1258.63 929.886C1158.44 1656.26 1095.82 2187.74 1070.78 2524.31H1408.92ZM2667.55 79.8386H3367.31C3833.82 79.8386 4149.26 97.8415 4313.64 133.847C4479.58 169.853 4614.21 262.215 4717.53 410.934C4822.41 558.088 4874.86 793.691 4874.86 1117.74C4874.86 1413.61 4838.07 1612.43 4764.49 1714.18C4690.91 1815.94 4546.11 1876.99 4330.07 1897.34C4525.76 1945.87 4657.26 2010.84 4724.57 2092.24C4791.89 2173.65 4833.37 2248.79 4849.03 2317.67C4866.25 2384.99 4874.86 2572.06 4874.86 2878.89V3881.57H3956.71V2618.24C3956.71 2414.73 3940.27 2288.71 3907.4 2240.18C3876.09 2191.65 3792.34 2167.39 3656.14 2167.39V3881.57H2667.55V79.8386ZM3656.14 730.289V1575.64C3767.29 1575.64 3844.78 1560.77 3888.61 1531.02C3934.01 1499.72 3956.71 1400.31 3956.71 1232.8V1023.81C3956.71 903.273 3934.79 824.217 3890.96 786.646C3848.69 749.075 3770.42 730.289 3656.14 730.289ZM6248.55 79.8386V3881.57H5259.96V79.8386H6248.55ZM8298.53 79.8386V840.655L7561.19 3120.75H8298.53V3881.57H6476.33V3329.74L7237.14 840.655H6565.56V79.8386H8298.53ZM11607.1 79.8386V3881.57H10743V1314.99L10397.8 3881.57H9784.94L9420.97 1373.7V3881.57H8556.83V79.8386H9836.6C9874.17 308.397 9914.09 577.656 9956.35 887.619L10092.5 1855.08L10318 79.8386H11607.1ZM12992.6 79.8386V3881.57H12004V79.8386H12992.6ZM15228.1 79.8386V3120.75H15829.2V3881.57H14239.5V79.8386H15228.1ZM17900.3 79.8386L18466.2 3881.57H17454.1L17404.8 3198.24H17050.3L16991.6 3881.57H15967.7L16470.3 79.8386H17900.3ZM17376.7 2524.31C17326.6 2093.81 17276.5 1562.33 17226.4 929.886C17126.2 1656.26 17063.6 2187.74 17038.5 2524.31H17376.7ZM18635.3 79.8386H19621.5C19933.1 79.8386 20168.7 104.103 20328.3 152.633C20489.6 201.162 20619.5 299.786 20718.1 448.506C20816.8 595.659 20866.1 833.61 20866.1 1162.36C20866.1 1384.65 20830.9 1539.63 20760.4 1627.3C20691.5 1714.97 20554.6 1782.28 20349.5 1829.25C20578 1880.91 20733 1967.01 20814.4 2087.55C20895.8 2206.52 20936.5 2389.68 20936.5 2637.03V2989.26C20936.5 3245.99 20906.8 3436.2 20847.3 3559.87C20789.4 3683.54 20696.2 3768.07 20567.9 3813.47C20439.5 3858.87 20176.5 3881.57 19778.9 3881.57H18635.3V79.8386ZM19623.9 730.289V1575.64C19666.2 1574.07 19699 1573.29 19722.5 1573.29C19819.6 1573.29 19881.4 1549.81 19908 1502.85C19934.6 1454.32 19947.9 1317.34 19947.9 1091.91C19947.9 972.936 19937 889.967 19915.1 843.003C19893.1 794.473 19864.2 763.947 19828.2 751.423C19793.7 738.899 19725.6 731.855 19623.9 730.289ZM19623.9 2167.39V3231.12C19763.2 3226.42 19851.7 3204.51 19889.2 3165.37C19928.4 3126.23 19947.9 3029.96 19947.9 2876.54V2521.96C19947.9 2359.16 19930.7 2260.53 19896.3 2226.09C19861.8 2191.65 19771 2172.08 19623.9 2167.39ZM23388 1230.46H22469.9V948.672C22469.9 817.173 22458.2 733.42 22434.7 697.415C22411.2 661.409 22372.1 643.406 22317.3 643.406C22257.8 643.406 22212.4 667.671 22181.1 716.2C22151.3 764.73 22136.5 838.306 22136.5 936.931C22136.5 1063.73 22153.7 1159.23 22188.1 1223.41C22221 1287.59 22314.1 1365.09 22467.6 1455.88C22907.4 1717.31 23184.5 1931.78 23298.8 2099.29C23413.1 2266.79 23470.2 2536.84 23470.2 2909.42C23470.2 3180.24 23438.1 3379.84 23374 3508.21C23311.3 3636.58 23189.2 3744.59 23007.6 3832.26C22826 3918.36 22614.7 3961.41 22373.6 3961.41C22109.1 3961.41 21882.8 3911.31 21695 3811.12C21508.7 3710.93 21386.6 3583.35 21328.7 3428.37C21270.8 3273.39 21241.8 3053.44 21241.8 2768.52V2519.62H22159.9V2982.21C22159.9 3124.67 22172.5 3216.25 22197.5 3256.95C22224.1 3297.65 22270.3 3318 22336.1 3318C22401.8 3318 22450.3 3292.17 22481.6 3240.51C22514.5 3188.85 22531 3112.14 22531 3010.39C22531 2786.53 22500.4 2640.16 22439.4 2571.28C22376.8 2502.4 22222.6 2387.33 21976.8 2226.09C21731 2063.28 21568.2 1945.09 21488.4 1871.51C21408.5 1797.94 21342 1696.18 21288.8 1566.25C21237.1 1436.31 21211.3 1270.37 21211.3 1068.43C21211.3 777.253 21248.1 564.35 21321.6 429.72C21396.8 295.09 21517.3 190.204 21683.3 115.062C21849.2 38.3538 22049.6 -8.91685e-05 22284.4 -8.91685e-05C22541.1 -8.91685e-05 22759.5 41.4847 22939.5 124.454C23121.1 207.424 23240.9 312.31 23298.8 439.113C23358.3 564.35 23388 778.036 23388 1080.17V1230.46Z" fill="url(#paint0_linear_2505_41872)"/>
<defs>
<linearGradient id="paint0_linear_2505_41872" x1="5108.44" y1="1963.06" x2="18928.5" y2="1963.06" gradientUnits="userSpaceOnUse">
<stop stop-color="#019FDD"/>
<stop offset="1" stop-color="#3C2F88"/>
</linearGradient>
</defs>
</svg>
